<?xml version="1.0" encoding="UTF-8"?>
<!DOCTYPE svg PUBLIC "-//W3C//DTD SVG 1.1//EN" "http://www.w3.org/Graphics/SVG/1.1/DTD/svg11.dtd">
<!-- Creator: CorelDRAW -->
<svg xmlns="http://www.w3.org/2000/svg" xml:space="preserve" width="61.3283mm" height="66.0407mm" version="1.1" style="shape-rendering:geometricPrecision; text-rendering:geometricPrecision; image-rendering:optimizeQuality; fill-rule:evenodd; clip-rule:evenodd"
viewBox="0 0 6132.98 6604.23"
 xmlns:xlink="http://www.w3.org/1999/xlink"
 xmlns:xodm="http://www.corel.com/coreldraw/odm/2003">
 <defs>
  <style type="text/css">
   <![CDATA[
    .fil0 {fill:white}
   ]]>
  </style>
 </defs>
 <g id="Camada_x0020_1">
  <metadata id="CorelCorpID_0Corel-Layer"/>
  <g id="_1592469280">
   <polygon class="fil0" points="2781.29,2358.05 3568.34,2358.05 2123.46,4916.91 27.84,1321.26 6105.15,1321.26 5741.17,1994.07 1219.04,1983.04 2101.41,3505.12 "/>
   <polygon class="fil0" points="3976.46,2314.61 5555.36,2326.11 4578.2,4046.21 3828.9,4024.07 3666.59,4304.44 4400.1,4319.19 3998.6,5043.96 2417.14,5031.08 3408.36,3330.54 4153.54,3330.54 4352.74,3019.63 3599.16,3020.66 "/>
   <path class="fil0" d="M2293.68 5250.49l782.71 1353.74 795.57 -1353.74c-673.04,0 -902.44,0 -1578.28,0z"/>
   <path class="fil0" d="M3066.5 0c899.59,0 1708.71,394.22 2269.65,1022.17l-532.3 0c-469.27,-402.78 -1075.4,-645.66 -1737.34,-645.66 -661.96,0 -1268.08,242.88 -1737.35,645.66l-532.3 0c560.93,-627.95 1370.05,-1022.17 2269.66,-1022.17zm2955.57 2286.74c72.18,265.49 110.91,545.11 110.91,833.97 0,1511.08 -1055.34,2771.22 -2456.83,3058.94l273.57 -465.51c1055.44,-372.21 1813.3,-1392.67 1813.3,-2593.43 0,-121.89 -7.84,-241.92 -23,-359.6l267.87 -474.37 14.18 0zm-3544.87 3896.89c-1411.59,-279.66 -2477.2,-1544.54 -2477.2,-3062.91 0,-283.27 37.26,-557.66 106.77,-818.55l282.91 485.4c-13.02,109.2 -19.72,220.38 -19.72,333.15 0,1211.42 771.36,2239.38 1841.47,2603.25l265.78 459.66z"/>
  </g>
 </g>
</svg>
